<mxfile host="app.diagrams.net" modified="2023-11-21T15:38:49.699Z" agent="Mozilla/5.0 (Windows NT 10.0; Win64; x64) AppleWebKit/537.36 (KHTML, like Gecko) Chrome/119.0.0.0 Safari/537.36" etag="78n28ljMbpYXLzjrSJQt" version="22.1.3" type="device">
  <diagram name="Страница — 1" id="ldkCRkGGkNpc2QrxQe3u">
    <mxGraphModel dx="930" dy="391" grid="1" gridSize="10" guides="1" tooltips="1" connect="1" arrows="1" fold="1" page="1" pageScale="1" pageWidth="827" pageHeight="1169" math="0" shadow="0">
      <root>
        <mxCell id="0" />
        <mxCell id="1" parent="0" />
        <mxCell id="C9Rotz4dJ8DUOeCwyhuy-3" value="" style="edgeStyle=orthogonalEdgeStyle;rounded=0;orthogonalLoop=1;jettySize=auto;html=1;" edge="1" parent="1" source="C9Rotz4dJ8DUOeCwyhuy-1" target="C9Rotz4dJ8DUOeCwyhuy-2">
          <mxGeometry relative="1" as="geometry" />
        </mxCell>
        <mxCell id="C9Rotz4dJ8DUOeCwyhuy-1" value="&lt;font style=&quot;font-size: 18px;&quot;&gt;start&lt;/font&gt;" style="rounded=1;whiteSpace=wrap;html=1;" vertex="1" parent="1">
          <mxGeometry x="340" y="50" width="120" height="60" as="geometry" />
        </mxCell>
        <mxCell id="C9Rotz4dJ8DUOeCwyhuy-5" value="" style="edgeStyle=orthogonalEdgeStyle;rounded=0;orthogonalLoop=1;jettySize=auto;html=1;" edge="1" parent="1" source="C9Rotz4dJ8DUOeCwyhuy-2" target="C9Rotz4dJ8DUOeCwyhuy-4">
          <mxGeometry relative="1" as="geometry" />
        </mxCell>
        <mxCell id="C9Rotz4dJ8DUOeCwyhuy-2" value="input string array&amp;nbsp;" style="shape=parallelogram;perimeter=parallelogramPerimeter;whiteSpace=wrap;html=1;fixedSize=1;" vertex="1" parent="1">
          <mxGeometry x="340" y="150" width="120" height="60" as="geometry" />
        </mxCell>
        <mxCell id="C9Rotz4dJ8DUOeCwyhuy-8" value="" style="edgeStyle=orthogonalEdgeStyle;rounded=0;orthogonalLoop=1;jettySize=auto;html=1;" edge="1" parent="1" source="C9Rotz4dJ8DUOeCwyhuy-4" target="C9Rotz4dJ8DUOeCwyhuy-7">
          <mxGeometry relative="1" as="geometry" />
        </mxCell>
        <mxCell id="C9Rotz4dJ8DUOeCwyhuy-4" value="for (int i = 0; i &amp;lt; array.Lengrh; i ++)&lt;br&gt;&quot;заполнение массива строками пользователями &quot;" style="rounded=0;whiteSpace=wrap;html=1;" vertex="1" parent="1">
          <mxGeometry x="330" y="260" width="140" height="90" as="geometry" />
        </mxCell>
        <mxCell id="C9Rotz4dJ8DUOeCwyhuy-11" value="" style="edgeStyle=orthogonalEdgeStyle;rounded=0;orthogonalLoop=1;jettySize=auto;html=1;" edge="1" parent="1" source="C9Rotz4dJ8DUOeCwyhuy-6" target="C9Rotz4dJ8DUOeCwyhuy-10">
          <mxGeometry relative="1" as="geometry" />
        </mxCell>
        <mxCell id="C9Rotz4dJ8DUOeCwyhuy-12" value="YES" style="edgeLabel;html=1;align=center;verticalAlign=middle;resizable=0;points=[];" vertex="1" connectable="0" parent="C9Rotz4dJ8DUOeCwyhuy-11">
          <mxGeometry x="-0.0703" y="-3" relative="1" as="geometry">
            <mxPoint as="offset" />
          </mxGeometry>
        </mxCell>
        <mxCell id="C9Rotz4dJ8DUOeCwyhuy-14" style="edgeStyle=orthogonalEdgeStyle;rounded=0;orthogonalLoop=1;jettySize=auto;html=1;exitX=0.5;exitY=1;exitDx=0;exitDy=0;" edge="1" parent="1" source="C9Rotz4dJ8DUOeCwyhuy-6">
          <mxGeometry relative="1" as="geometry">
            <mxPoint x="170" y="460" as="targetPoint" />
            <mxPoint x="310" y="660" as="sourcePoint" />
            <Array as="points">
              <mxPoint x="400" y="680" />
              <mxPoint x="80" y="680" />
              <mxPoint x="80" y="460" />
              <mxPoint x="170" y="460" />
            </Array>
          </mxGeometry>
        </mxCell>
        <mxCell id="C9Rotz4dJ8DUOeCwyhuy-15" value="NO" style="edgeLabel;html=1;align=center;verticalAlign=middle;resizable=0;points=[];" vertex="1" connectable="0" parent="C9Rotz4dJ8DUOeCwyhuy-14">
          <mxGeometry x="-0.5564" y="-2" relative="1" as="geometry">
            <mxPoint as="offset" />
          </mxGeometry>
        </mxCell>
        <mxCell id="C9Rotz4dJ8DUOeCwyhuy-6" value="array[ i ] &amp;lt;= 3&amp;nbsp;" style="rhombus;whiteSpace=wrap;html=1;" vertex="1" parent="1">
          <mxGeometry x="325" y="520" width="150" height="140" as="geometry" />
        </mxCell>
        <mxCell id="C9Rotz4dJ8DUOeCwyhuy-9" value="" style="edgeStyle=orthogonalEdgeStyle;rounded=0;orthogonalLoop=1;jettySize=auto;html=1;" edge="1" parent="1" source="C9Rotz4dJ8DUOeCwyhuy-7" target="C9Rotz4dJ8DUOeCwyhuy-6">
          <mxGeometry relative="1" as="geometry" />
        </mxCell>
        <mxCell id="C9Rotz4dJ8DUOeCwyhuy-17" style="edgeStyle=orthogonalEdgeStyle;rounded=0;orthogonalLoop=1;jettySize=auto;html=1;entryX=1;entryY=0.75;entryDx=0;entryDy=0;exitX=1;exitY=0.5;exitDx=0;exitDy=0;" edge="1" parent="1" source="C9Rotz4dJ8DUOeCwyhuy-7" target="C9Rotz4dJ8DUOeCwyhuy-16">
          <mxGeometry relative="1" as="geometry">
            <mxPoint x="454" y="440" as="sourcePoint" />
            <mxPoint x="459.9823529411766" y="806.4705882352941" as="targetPoint" />
            <Array as="points">
              <mxPoint x="620" y="430" />
              <mxPoint x="620" y="797" />
            </Array>
          </mxGeometry>
        </mxCell>
        <mxCell id="C9Rotz4dJ8DUOeCwyhuy-7" value="string [] newArray&lt;br&gt;int index = 0;&amp;nbsp;&lt;br&gt;for (int i = 0; i &amp;lt;= array.Length; i ++)&lt;br&gt;Цикл" style="rounded=0;whiteSpace=wrap;html=1;" vertex="1" parent="1">
          <mxGeometry x="340" y="390" width="120" height="80" as="geometry" />
        </mxCell>
        <mxCell id="C9Rotz4dJ8DUOeCwyhuy-13" style="edgeStyle=orthogonalEdgeStyle;rounded=0;orthogonalLoop=1;jettySize=auto;html=1;exitX=0.5;exitY=0;exitDx=0;exitDy=0;entryX=0;entryY=0.5;entryDx=0;entryDy=0;" edge="1" parent="1" source="C9Rotz4dJ8DUOeCwyhuy-10" target="C9Rotz4dJ8DUOeCwyhuy-7">
          <mxGeometry relative="1" as="geometry" />
        </mxCell>
        <mxCell id="C9Rotz4dJ8DUOeCwyhuy-10" value="newArray[index] = array[i]&lt;br&gt;index ++" style="rounded=0;whiteSpace=wrap;html=1;" vertex="1" parent="1">
          <mxGeometry x="110" y="560" width="120" height="60" as="geometry" />
        </mxCell>
        <mxCell id="C9Rotz4dJ8DUOeCwyhuy-21" value="" style="edgeStyle=orthogonalEdgeStyle;rounded=0;orthogonalLoop=1;jettySize=auto;html=1;" edge="1" parent="1" source="C9Rotz4dJ8DUOeCwyhuy-16" target="C9Rotz4dJ8DUOeCwyhuy-20">
          <mxGeometry relative="1" as="geometry" />
        </mxCell>
        <mxCell id="C9Rotz4dJ8DUOeCwyhuy-16" value="output: newAraay" style="shape=parallelogram;perimeter=parallelogramPerimeter;whiteSpace=wrap;html=1;fixedSize=1;" vertex="1" parent="1">
          <mxGeometry x="320" y="740" width="160" height="80" as="geometry" />
        </mxCell>
        <mxCell id="C9Rotz4dJ8DUOeCwyhuy-20" value="finish" style="rounded=1;whiteSpace=wrap;html=1;" vertex="1" parent="1">
          <mxGeometry x="340" y="880" width="120" height="60" as="geometry" />
        </mxCell>
      </root>
    </mxGraphModel>
  </diagram>
</mxfile>
